<?xml version="1.0" encoding="UTF-8" standalone="no"?>
<svg
   xmlns:dc="http://purl.org/dc/elements/1.1/"
   xmlns:cc="http://creativecommons.org/ns#"
   xmlns:rdf="http://www.w3.org/1999/02/22-rdf-syntax-ns#"
   xmlns:svg="http://www.w3.org/2000/svg"
   xmlns="http://www.w3.org/2000/svg"
   xmlns:xlink="http://www.w3.org/1999/xlink"
   height="128"
   width="128"
   version="1.1"
   viewBox="0 0 128 128"
   id="svg2">
  <defs
     id="defs4">
    <linearGradient
       id="linearGradient3988">
      <stop
         offset="0"
         style="stop-color:#f0f0f0"
         id="stop3990" />
      <stop
         offset="1"
         style="stop-color:#f0f0f0;stop-opacity:0"
         id="stop3992" />
    </linearGradient>
    <linearGradient
       x1="17.236"
       y1="14.987"
       x2="18.562"
       gradientUnits="userSpaceOnUse"
       xlink:href="#linearGradient3988"
       y2="24"
       id="linearGradient3080" />
    <linearGradient
       x1="175.59"
       y1="521.40002"
       gradientTransform="matrix(1.0145,0,0,1.0145,-176.46,-504.98)"
       x2="219.59"
       gradientUnits="userSpaceOnUse"
       y2="521.40002"
       id="linearGradient3110">
      <stop
         offset="0"
         style="stop-color:#bf4823"
         id="stop4775" />
      <stop
         offset="1"
         style="stop-color:#610905"
         id="stop3692" />
    </linearGradient>
    <linearGradient
       x1="175.59"
       y1="521.40002"
       gradientTransform="matrix(1.0145,0,0,1.0145,-176.46,-504.98)"
       x2="219.59"
       gradientUnits="userSpaceOnUse"
       y2="521.40002"
       id="linearGradient3114">
      <stop
         offset="0"
         style="stop-color:#e24e20"
         id="stop4779" />
      <stop
         offset="1"
         style="stop-color:#b30700"
         id="stop4781" />
    </linearGradient>
    <linearGradient
       x1="175.89"
       y1="521.28998"
       gradientTransform="matrix(1.0145,0,0,1.0196,-176.46,-507.5)"
       x2="219.28999"
       gradientUnits="userSpaceOnUse"
       y2="521.28998"
       id="linearGradient3117">
      <stop
         offset="0"
         style="stop-color:#ea5729;stop-opacity:.99608"
         id="stop3682" />
      <stop
         offset="1"
         style="stop-color:#990600"
         id="stop3684" />
    </linearGradient>
    <linearGradient
       y2="24"
       x2="18.562"
       y1="14.987"
       x1="17.236"
       gradientUnits="userSpaceOnUse"
       id="linearGradient3363"
       xlink:href="#linearGradient3988" />
    <linearGradient
       y2="24"
       x2="18.562"
       y1="14.987"
       x1="17.236"
       gradientUnits="userSpaceOnUse"
       id="linearGradient3365"
       xlink:href="#linearGradient3988" />
  </defs>
  <g
     transform="matrix(2.6666786,0,0,2.6666786,4.0532498e-5,-5.5088686e-4)"
     id="g3891">
    <rect
       x="1.988"
       y="2.1515999"
       width="44.023998"
       height="43.696999"
       rx="5.0727"
       style="fill:url(#linearGradient3117);fill-rule:evenodd"
       id="rect2898" />
    <path
       d="m 7.0574,2.7505 c -2.4861,0 -4.4665,1.9887 -4.4665,4.4761 l 0,33.547 c 0,2.4875 1.9804,4.4761 4.4665,4.4761 l 33.885,0 c 2.4861,0 4.4665,-1.9887 4.4665,-4.4761 l 0,-33.547 c 0,-2.4875 -1.9804,-4.4761 -4.4665,-4.4761 l -33.885,0 z"
       style="fill:none;stroke:url(#linearGradient3114);stroke-width:0.64967"
       id="path3939" />
    <path
       d="m 7.0536,2.2531 c -2.9607,0 -5.3581,2.3974 -5.3581,5.3581 l 0,26.061 c 13.48,-10.101 30.308,-12.656 44.608,-7.831 l 0,-18.23 c 0,-2.9607 -2.3974,-5.3581 -5.3581,-5.3581 l -33.892,0 z"
       style="opacity:0.21000001;fill:#ffffff"
       id="path3687" />
    <rect
       x="1.988"
       y="2.1515999"
       width="44.023998"
       height="43.696999"
       rx="5.0727"
       style="fill:none;stroke:url(#linearGradient3110);stroke-width:0.61873001"
       id="rect4723" />
    <g
       id="g3936">
      <g
         transform="matrix(0.30937,0,0,0.30937,-0.14501,31.401)"
         id="g3911">
        <path
           d="m 1.8125,-79.781 a 1.5002,1.5002 0 0 0 -1.3438,1.5 l 0,20.281 a 1.5002,1.5002 0 0 0 1.5,1.5 l 12.562,0 c 18,0 32.531,14.62 32.531,32.625 0,18.005 -14.526,32.531 -32.531,32.531 l -12.562,0 a 1.5002,1.5002 0 0 0 -1.5,1.5 l 0,20.281 a 1.5002,1.5002 0 0 0 1.5,1.5 l 12.562,0 c 30.834,0 55.938,-24.974 55.938,-55.812 0,-30.839 -25.1,-55.906 -55.938,-55.906 l -12.562,0 a 1.5002,1.5002 0 0 0 -0.15625,0 z"
           style="fill:#e5e5e5"
           id="path3844" />
        <path
           d="m 141.56,-79.781 c -30.835,0 -55.938,25.07 -55.938,55.906 0,30.836 25.105,55.812 55.938,55.812 l 12.562,0 a 1.4962,1.4962 0 0 0 1.5,-1.5 l 0,-20.281 a 1.4962,1.4962 0 0 0 -1.5,-1.5 l -12.562,0 c -18.007,0 -32.531,-14.524 -32.531,-32.531 0,-18.007 14.529,-32.625 32.531,-32.625 l 12.562,0 a 1.4962,1.4962 0 0 0 1.5,-1.5 l 0,-20.281 a 1.4962,1.4962 0 0 0 -1.5,-1.5 l -12.562,0 z"
           style="fill:#e5e5e5"
           id="path3842" />
      </g>
      <g
         transform="matrix(0.30937,0,0,0.30937,-0.14439,31.399)"
         id="g3895">
        <path
           d="m 14.531,-78.281 c -6.8165,0 -12.555,-0.0039 -12.555,-0.0039 l 0,20.289 c 0,0 5.4585,-0.0039 12.555,-0.0039 18.814,0 34.031,15.311 34.031,34.125 0,18.814 -15.218,34.031 -34.031,34.031 l -12.555,0 0,20.293 c 0,0 5.8223,-0.01172 12.555,-0.01172 30.025,0 54.438,-24.287 54.438,-54.312 0,-30.025 -24.412,-54.406 -54.438,-54.406 z"
           style="fill:#d3d3d3"
           id="path3830" />
        <g
           id="g3892">
          <path
             d="m 141.56,-78.281 c 6.8165,0 12.555,-0.0039 12.555,-0.0039 l 0,20.289 c 0,0 -5.4585,-0.0039 -12.555,-0.0039 -18.814,0 -34.031,15.311 -34.031,34.125 0,18.814 15.218,34.031 34.031,34.031 l 12.555,0 0,20.293 c 0,0 -5.8223,-0.01172 -12.555,-0.01172 -30.026,0 -54.438,-24.287 -54.438,-54.312 0,-30.025 24.412,-54.406 54.438,-54.406 z"
             style="fill:#d3d3d3"
             id="path3832" />
        </g>
      </g>
      <g
         style="fill:url(#linearGradient3080)"
         id="g3898">
        <path
           d="m 43.649,7.1819 c 2.1088,0 3.884,-0.00121 3.884,-0.00121 l 0,6.2767 c 0,0 -1.6887,-0.0012 -3.884,-0.0012 -5.8203,0 -10.528,4.7368 -10.528,10.557 0,5.8203 4.7078,10.528 10.528,10.528 l 3.884,0 0,6.2779 c 0,0 -1.8012,-0.0036 -3.884,-0.0036 -9.2889,0 -16.841,-7.5136 -16.841,-16.802 0,-9.2889 7.5522,-16.831 16.841,-16.831 z"
           style="fill:url(#linearGradient3363)"
           id="path3828" />
        <path
           d="m 4.3511,7.1819 c -2.1088,0 -3.884,-0.00121 -3.884,-0.00121 l 0,6.2767 c 0,0 1.6887,-0.0012 3.884,-0.0012 5.8203,0 10.528,4.7368 10.528,10.557 0,5.8203 -4.7078,10.528 -10.528,10.528 l -3.884,0 0,6.2779 c 0,0 1.8012,-0.0036 3.884,-0.0036 9.2889,0 16.841,-7.5136 16.841,-16.802 0,-9.2889 -7.5522,-16.831 -16.841,-16.831 z"
           style="fill:url(#linearGradient3365)"
           id="path3894" />
      </g>
    </g>
  </g>
  <metadata
     id="metadata33">
    <rdf:RDF>
      <cc:Work>
        <dc:format>image/svg+xml</dc:format>
        <dc:type
           rdf:resource="http://purl.org/dc/dcmitype/StillImage" />
        <cc:license
           rdf:resource="http://creativecommons.org/publicdomain/zero/1.0/" />
        <dc:publisher>
          <cc:Agent
             rdf:about="http://openclipart.org/">
            <dc:title>Openclipart</dc:title>
          </cc:Agent>
        </dc:publisher>
        <dc:title></dc:title>
        <dc:date>2011-06-04T13:19:58</dc:date>
        <dc:description>Double Commander is a cross-platform open source file manager with two panels side by side.</dc:description>
        <dc:source>https://openclipart.org/detail/142345/double-commander-by-vanyasmart</dc:source>
        <dc:creator>
          <cc:Agent>
            <dc:title>vanyasmart</dc:title>
          </cc:Agent>
        </dc:creator>
        <dc:subject>
          <rdf:Bag>
            <rdf:li>commander</rdf:li>
            <rdf:li>dc</rdf:li>
            <rdf:li>double commander</rdf:li>
            <rdf:li>doublecmd</rdf:li>
            <rdf:li>file manager</rdf:li>
            <rdf:li>program</rdf:li>
          </rdf:Bag>
        </dc:subject>
      </cc:Work>
      <cc:License
         rdf:about="http://creativecommons.org/publicdomain/zero/1.0/">
        <cc:permits
           rdf:resource="http://creativecommons.org/ns#Reproduction" />
        <cc:permits
           rdf:resource="http://creativecommons.org/ns#Distribution" />
        <cc:permits
           rdf:resource="http://creativecommons.org/ns#DerivativeWorks" />
      </cc:License>
    </rdf:RDF>
  </metadata>
</svg>
