<?xml version="1.0" encoding="UTF-8" standalone="no"?>
<svg
   xmlns:dc="http://purl.org/dc/elements/1.1/"
   xmlns:cc="http://creativecommons.org/ns#"
   xmlns:rdf="http://www.w3.org/1999/02/22-rdf-syntax-ns#"
   xmlns:svg="http://www.w3.org/2000/svg"
   xmlns="http://www.w3.org/2000/svg"
   version="1.1"
   id="svg3471"
   viewBox="0 0 128 128"
   height="128"
   width="128">
  <defs
     id="defs3473">
    <radialGradient
       gradientTransform="translate(-198.35757,313.60863)"
       id="SVGID_1_"
       cx="66.929199"
       cy="61.9062"
       r="64.466698"
       fx="63.086399"
       fy="69.8106"
       gradientUnits="userSpaceOnUse">
      <stop
         offset="0"
         style="stop-color:#FCE90A"
         id="stop241" />
      <stop
         offset="0.5087"
         style="stop-color:#F19300"
         id="stop243" />
      <stop
         offset="1"
         style="stop-color:#E6511E"
         id="stop245" />
    </radialGradient>
  </defs>
  <metadata
     id="metadata3476">
    <rdf:RDF>
      <cc:Work
         rdf:about="">
        <dc:format>image/svg+xml</dc:format>
        <dc:type
           rdf:resource="http://purl.org/dc/dcmitype/StillImage" />
        <dc:title></dc:title>
      </cc:Work>
    </rdf:RDF>
  </metadata>
  <g
     transform="translate(198.35757,-320.25862)"
     id="layer1">
    <g
       transform="matrix(0.9506127,0,0,0.9506127,-9.4199017,22.138273)"
       id="g3495">
      <path
         style="fill:#40a52b"
         id="path238"
         d="m -134.53757,448.25863 c -15.594,0 -30.547,-5.71 -42.166,-16.096 -1.982,-3.131 -2.55,-6.334 -1.684,-9.521 1.33,-4.874 5.924,-9.324 12.938,-12.522 5.615,-2.56 10.906,-3.805 16.172,-3.805 11.107,0 21.479,5.663 33.638,14.169 8.511,5.954 17.287999,8.963 24.621999,10.45 -11.693999,11.089 -27.188999,17.325 -43.519999,17.325 l 0,0 z m 50.606999,-42.941 c -4.368,0 -9.303,-1.97 -14.267,-5.699 -17.219999,-12.943 -16.853999,-29.715 -14.720999,-48.705 1.141,-10.154 -0.391,-19.241 -2.549,-26.37 26.033999,8.229 44.265999,32.562 44.265999,60.378 0,3.743 -0.347,7.561 -1.034,11.354 -2.124,5.833 -6.268,9.042 -11.695,9.042 l 0,0 z m -112.156999,-5.405 c -1.185,-4.869 -1.784,-9.887 -1.784,-14.991 0,-25.39 15.069,-48.234 38.404,-58.23 2.291,-0.785 4.493,-1.185 6.555,-1.185 3.685,0 6.678,1.256 8.906,3.737 3.299,3.677 4.677,9.789 3.872,17.206 -2.325,21.415 -16.93,29.673 -34.342,37.541 -9.467,4.276 -16.567,10.34 -21.611,15.922 l 0,0 z" />
      <path
         style="fill:url(#SVGID_1_)"
         id="path247"
         d="m -168.76057,402.86063 c 22.841,-10.414 40.102,-1.221 57.695,11.085 15.323999,10.717 31.950999,10.562 35.986999,10.343 5.128,-7.729 8.781,-16.515 10.579,-25.961 -5.303,15.766 -21.668,20.303 -38.488999,7.67 -20.07,-15.082 -20.255,-34.64 -17.86,-55.973 2.013,-17.948 -5.463,-32.112 -7.889,-36.162 -1.915,-0.153 -3.845,-0.254 -5.8,-0.254 -9.884,0 -19.295,2.013 -27.853,5.646 18.16,-6.416 32.634,5.483 30.187,28.055 -2.705,24.96 -19.42,35.107 -38.983,43.952 -16.772,7.579 -25.125,21.618 -27.171,25.477 3.906,7.82 9.199,14.824 15.569,20.683 -8.263,-11.805 -3.631,-26.505 14.028,-34.561 z" />
    </g>
  </g>
</svg>
